<svg width="40" height="39" viewBox="0 0 40 39" fill="none" xmlns="http://www.w3.org/2000/svg">
<path d="M2.5 35.5409C2.5 37.0531 3.61719 38.2749 5 38.2749H35C36.3828 38.2749 37.5 37.0531 37.5 35.5409V10.9357H2.5V35.5409ZM15 17.4287C15 16.8649 15.4219 16.4035 15.9375 16.4035H24.0625C24.5781 16.4035 25 16.8649 25 17.4287V18.1122C25 18.6761 24.5781 19.1374 24.0625 19.1374H15.9375C15.4219 19.1374 15 18.6761 15 18.1122V17.4287ZM37.5 0H2.5C1.11719 0 0 1.22172 0 2.73392V6.8348C0 7.58662 0.5625 8.20176 1.25 8.20176H38.75C39.4375 8.20176 40 7.58662 40 6.8348V2.73392C40 1.22172 38.8828 0 37.5 0Z" fill="#2B6956"/>
</svg>
