<svg width="39" height="40" viewBox="0 0 39 40" fill="none" xmlns="http://www.w3.org/2000/svg">
<path d="M36.6031 6.52101L21.0031 0.286407C20.5279 0.0973263 20.0185 0 19.5041 0C18.9896 0 18.4802 0.0973263 18.005 0.286407L2.405 6.52101C0.950625 7.09771 0 8.46153 0 9.97342C0 25.443 9.30312 36.1354 17.9969 39.6112C18.9556 39.993 20.0362 39.993 20.995 39.6112C27.9581 36.829 39 27.2199 39 9.97342C39 8.46153 38.0494 7.09771 36.6031 6.52101ZM19.5081 34.7794L19.5 5.08705L33.7919 10.7995C33.5237 22.5985 27.1212 31.1477 19.5081 34.7794Z" fill="#2B6956"/>
</svg>
