<svg width="24" height="24" viewBox="0 0 24 24" fill="none" xmlns="http://www.w3.org/2000/svg">
<path d="M20.25 5.18168V21.467C20.2503 21.603 20.2126 21.7363 20.1412 21.8526C20.0698 21.9688 19.9673 22.0633 19.845 22.1259C19.7383 22.1798 19.6199 22.2078 19.5 22.2073C19.3471 22.2069 19.1979 22.1604 19.0725 22.074L12 17.1884L4.9275 22.074C4.81817 22.1471 4.69124 22.1903 4.55955 22.1994C4.42786 22.2085 4.29607 22.1831 4.1775 22.1259C4.05101 22.0664 3.94392 21.9732 3.86836 21.8567C3.79281 21.7403 3.7518 21.6053 3.75 21.467V5.18168C3.75 4.20006 4.14509 3.25864 4.84835 2.56453C5.55161 1.87042 6.50544 1.48047 7.5 1.48047H16.5C17.4946 1.48047 18.4484 1.87042 19.1517 2.56453C19.8549 3.25864 20.25 4.20006 20.25 5.18168Z" fill="#2B6956"/>
</svg>
