<svg width="23" height="20" viewBox="0 0 23 20" fill="none" xmlns="http://www.w3.org/2000/svg">
<path d="M20.2527 4.98438C20.267 5.20312 20.267 5.42191 20.267 5.64065C20.267 12.3125 15.6121 20.0001 7.1042 20.0001C4.48308 20.0001 2.04819 19.1719 0 17.7345C0.372411 17.7813 0.730449 17.7969 1.11719 17.7969C3.27992 17.7969 5.27085 17.0001 6.8607 15.6407C4.82684 15.5938 3.1224 14.1407 2.53515 12.1407C2.82163 12.1875 3.10807 12.2188 3.40888 12.2188C3.82423 12.2188 4.23963 12.1563 4.62633 12.0469C2.50653 11.5781 0.916633 9.5469 0.916633 7.09377V7.03129C1.5325 7.4063 2.24871 7.64067 3.00777 7.67188C1.76167 6.76561 0.94529 5.21875 0.94529 3.46873C0.94529 2.53124 1.17442 1.67186 1.57548 0.921855C3.85285 3.98437 7.27606 5.98434 11.1146 6.20313C11.043 5.82812 11 5.43754 11 5.0469C11 2.26561 13.0625 0 15.6263 0C16.9583 0 18.1615 0.609376 19.0065 1.59376C20.0521 1.37502 21.0547 0.953118 21.9428 0.375004C21.599 1.54691 20.8685 2.53129 19.9089 3.15625C20.8399 3.04693 21.7422 2.76561 22.5729 2.37503C21.9428 3.37499 21.155 4.26558 20.2527 4.98438Z" fill="#EBE5DB"/>
</svg>
