<svg width="40" height="40" viewBox="0 0 40 40" fill="none" xmlns="http://www.w3.org/2000/svg">
<g clip-path="url(#clip0_29_142)">
<path d="M23.6712 31.7974C24.0005 29.7843 22.6209 27.8878 20.5899 27.5615C18.5589 27.2352 16.6455 28.6026 16.3162 30.6157C15.9869 32.6288 17.3664 34.5253 19.3975 34.8516C21.4285 35.1779 23.3419 33.8104 23.6712 31.7974Z" fill="#2B6956"/>
<path d="M38.8879 12.4924C33.5184 7.17107 26.6133 4.73828 20 4.73828C13.3867 4.73828 6.48156 7.17107 1.11211 12.4924C-0.371795 13.9647 -0.364998 16.2446 1.09828 17.7008C2.92563 19.532 5.31813 18.8031 6.38946 17.7058C10.0265 14.1061 14.8597 12.1237 20 12.1237C25.1403 12.1237 29.9735 14.1061 33.6105 17.7058C34.6819 18.8031 37.0744 19.532 38.9017 17.7008C40.365 16.2446 40.3718 13.9647 38.8879 12.4924Z" fill="#2B6956"/>
<path d="M20 16.1277C16.2952 16.1277 12.32 17.4927 9.23962 20.5448C7.73673 22.0342 7.76666 24.3246 9.25462 25.7836C10.732 27.2379 13.0307 27.2317 14.5077 25.7679C15.9748 24.3141 17.9252 23.5135 19.9999 23.5135C22.0746 23.5135 24.0251 24.3141 25.4921 25.7679C26.9692 27.2317 29.2679 27.2379 30.7452 25.7836C32.2332 24.3246 32.2631 22.0342 30.7602 20.5448C27.68 17.4928 23.7048 16.1277 20 16.1277Z" fill="#2B6956"/>
</g>
<defs>
<clipPath id="clip0_29_142">
<rect width="40" height="39.6418" fill="white"/>
</clipPath>
</defs>
</svg>
