<svg width="24" height="24" viewBox="0 0 24 24" fill="none" xmlns="http://www.w3.org/2000/svg">
<path d="M3 17.7659C3 18.3115 3.44727 18.7529 4 18.7529H7H8C8 20.9303 9.79395 22.7009 12 22.7009C14.2061 22.7009 16 20.9303 16 18.7529H17H20C20.5527 18.7529 21 18.3115 21 17.7659C21 17.2204 20.5527 16.7789 20 16.7789H19.8157C19.9278 16.4687 20 16.1397 20 15.7919V10.857C20 7.18587 17.4447 4.10093 14 3.22092V2.96104C14 1.87285 13.1025 0.987061 12 0.987061C10.8975 0.987061 10 1.87285 10 2.96104V3.22092C6.5553 4.10093 4 7.18587 4 10.857V15.7919C4 16.1397 4.07227 16.4687 4.18433 16.7789H4C3.44727 16.7789 3 17.2204 3 17.7659ZM12 20.7269C10.8975 20.7269 10 19.8411 10 18.7529H14C14 19.8411 13.1025 20.7269 12 20.7269ZM6 15.7919V10.857C6 7.59142 8.69141 4.93502 12 4.93502C15.3086 4.93502 18 7.59142 18 10.857V15.7919C18 16.3365 17.5518 16.7789 17 16.7789H15H9H7C6.44824 16.7789 6 16.3365 6 15.7919Z" fill="#EBE5DB"/>
</svg>
