<svg width="36" height="44" viewBox="0 0 36 44" fill="none" xmlns="http://www.w3.org/2000/svg">
<path d="M35.287 10.0075L18.746 0.204275C18.2864 -0.0680918 17.7138 -0.0680918 17.2541 0.204275L0.71308 10.0075C0.271006 10.2696 0 10.7443 0 11.2568V16.8529C0 28.6397 6.83586 39.4051 17.4732 43.508C17.8119 43.6386 18.1879 43.6388 18.5268 43.508C29.1384 39.4153 36 28.6732 36 16.8529V11.2568C36.0001 10.7442 35.7292 10.2696 35.287 10.0075ZM25.2084 18.5368L16.0638 27.6469C15.494 28.2145 14.5702 28.2145 14.0004 27.6469L10.7911 24.4497C10.2213 23.8822 10.2213 22.9618 10.7911 22.3941C11.3609 21.8266 12.2848 21.8266 12.8545 22.3941L15.0321 24.5634L23.145 16.4812C23.7147 15.9136 24.6386 15.9136 25.2084 16.4812C25.7783 17.0489 25.7783 17.9692 25.2084 18.5368Z" fill="#2B6956"/>
</svg>
