<svg width="53" height="42" viewBox="0 0 53 42" fill="none" xmlns="http://www.w3.org/2000/svg">
<path d="M9.33464 36.8945C9.33464 34.973 8.03007 33.3502 6.22309 32.7389V17.8458L3.11155 16.4569V32.739C1.30457 33.3502 0 34.973 0 36.8945C0 39.3359 2.09366 41.3219 4.66732 41.3219C7.24098 41.3219 9.33464 39.3359 9.33464 36.8945Z" fill="#2B6956"/>
<path d="M43.3204 28.9073L41.7694 20.0809L26.5517 26.8737L11.2304 20.0809L9.67937 28.9073C10.0041 29.1034 15.844 35.4187 26.5517 35.4187C37.1819 35.4187 43.0091 29.095 43.3204 28.9073Z" fill="#2B6956"/>
<path d="M0 11.8063L26.5519 23.6125L53.0001 11.8063L26.5519 0L0 11.8063ZM28.1077 13.2821H24.9961V10.3305H28.1077V13.2821Z" fill="#2B6956"/>
</svg>
