<svg width="42" height="42" viewBox="0 0 42 42" fill="none" xmlns="http://www.w3.org/2000/svg">
<path d="M41.4948 17.5882L32.459 26.2802L34.5919 38.5537C34.7475 39.4516 34.1361 40.3038 33.2263 40.4574C32.8651 40.5183 32.4934 40.4604 32.1688 40.2925L20.9998 34.4974L9.83112 40.2918C9.01377 40.7147 8.00373 40.4035 7.57527 39.5968C7.40513 39.2765 7.34634 38.9096 7.40819 38.5531L9.54077 26.2803L0.504997 17.5882C-0.15604 16.9525 -0.169866 15.9084 0.473997 15.2559C0.730873 14.9958 1.0675 14.8264 1.43164 14.7744L13.9173 12.9841L19.5016 1.81821C19.9897 1.00158 21.0562 0.730094 21.8836 1.21202C22.137 1.35955 22.3483 1.56812 22.4978 1.81821L28.0821 12.9841L40.5677 14.7737C41.4811 14.9042 42.1145 15.7408 41.9824 16.6423C41.9297 17.0018 41.7582 17.3341 41.4945 17.5875L41.4948 17.5882Z" fill="#2B6956"/>
</svg>
