<svg width="38" height="38" viewBox="0 0 38 38" fill="none" xmlns="http://www.w3.org/2000/svg">
<path d="M32.9333 17.5745H30.4V11.2979C30.4 10.2991 29.9996 9.34123 29.287 8.63497C28.5744 7.92872 27.6078 7.53195 26.6 7.53195H20.2667V5.0213C20.2667 3.68957 19.7329 2.41238 18.7827 1.4707C17.8325 0.529028 16.5438 0 15.2 0C13.8562 0 12.5675 0.529028 11.6173 1.4707C10.6671 2.41238 10.1333 3.68957 10.1333 5.0213V7.53195H3.8C2.79218 7.53195 1.82563 7.92872 1.11299 8.63497C0.400356 9.34123 0 10.2991 0 11.2979V18.8299C0 19.1628 0.133452 19.4821 0.370998 19.7175C0.608544 19.9529 0.930726 20.0852 1.26667 20.0852H5.06667C5.73855 20.0852 6.38291 20.3497 6.858 20.8205C7.3331 21.2914 7.6 21.93 7.6 22.5958C7.6 23.2617 7.3331 23.9003 6.858 24.3711C6.38291 24.842 5.73855 25.1065 5.06667 25.1065H1.26667C0.930726 25.1065 0.608544 25.2387 0.370998 25.4742C0.133452 25.7096 0 26.0289 0 26.3618V33.8938C0 34.8926 0.400356 35.8504 1.11299 36.5567C1.82563 37.263 2.79218 37.6597 3.8 37.6597H11.4C11.7359 37.6597 12.0581 37.5275 12.2957 37.2921C12.5332 37.0566 12.6667 36.7373 12.6667 36.4044V32.6384C12.6667 31.9726 12.9336 31.334 13.4087 30.8631C13.8838 30.3923 14.5281 30.1278 15.2 30.1278C15.8719 30.1278 16.5162 30.3923 16.9913 30.8631C17.4664 31.334 17.7333 31.9726 17.7333 32.6384V36.4044C17.7333 36.7373 17.8668 37.0566 18.1043 37.2921C18.3419 37.5275 18.6641 37.6597 19 37.6597H26.6C27.6078 37.6597 28.5744 37.263 29.287 36.5567C29.9996 35.8504 30.4 34.8926 30.4 33.8938V27.6171H32.9333C34.2771 27.6171 35.5658 27.0881 36.516 26.1464C37.4662 25.2048 38 23.9276 38 22.5958C38 21.2641 37.4662 19.9869 36.516 19.0452C35.5658 18.1036 34.2771 17.5745 32.9333 17.5745Z" fill="#2B6956"/>
</svg>
