<svg width="38" height="40" viewBox="0 0 38 40" fill="none" xmlns="http://www.w3.org/2000/svg">
<path d="M0.913246 11.5645L18.0517 19.8198C18.5521 20.0612 19.1178 20.0612 19.6182 19.8198L36.7566 11.5645C37.9743 10.9778 37.9743 9.02388 36.7566 8.43717L19.6189 0.181049C19.3731 0.061747 19.106 0 18.8357 0C18.5654 0 18.2983 0.061747 18.0525 0.181049L0.913246 8.43639C-0.304415 9.0231 -0.304415 10.9778 0.913246 11.5645ZM36.7574 18.4612L32.4834 16.4042L20.5908 22.1284C20.0346 22.3963 19.4438 22.5323 18.8353 22.5323C18.2269 22.5323 17.6368 22.3963 17.0798 22.1284L5.18794 16.4042L0.913246 18.4612C-0.304415 19.0472 -0.304415 21.0003 0.913246 21.5862L18.0517 29.8353C18.5521 30.0759 19.1178 30.0759 19.6182 29.8353L36.7574 21.5862C37.975 21.0003 37.975 19.0472 36.7574 18.4612ZM36.7574 28.4455L32.4996 26.3963L20.5908 32.1282C20.0346 32.3962 19.4438 32.5321 18.8353 32.5321C18.2269 32.5321 17.6368 32.3962 17.0798 32.1282L5.17175 26.3963L0.913246 28.4455C-0.304415 29.0314 -0.304415 30.9845 0.913246 31.5704L18.0517 39.8195C18.5521 40.0601 19.1178 40.0601 19.6182 39.8195L36.7574 31.5704C37.975 30.9845 37.975 29.0314 36.7574 28.4455Z" fill="#2B6956"/>
</svg>
