<svg width="290" height="100" viewBox="0 0 290 100" fill="none" xmlns="http://www.w3.org/2000/svg">
<path d="M1.00081 4.25219L12.2578 4.25219C13.0592 4.25219 13.7834 4.73044 14.098 5.46755L23.5775 27.6752C23.7336 28.041 23.9952 28.352 24.3289 28.5684L50.6551 45.6427C51.6867 46.3118 53.072 45.9009 53.5719 44.7775L70.0411 7.76892C70.6998 6.28889 72.7524 6.16421 73.5853 7.55363L106.415 62.3166C107.231 63.6777 109.231 63.5927 109.928 62.1672L139.306 2.1226C139.775 1.16507 140.912 0.742977 141.892 1.16279L188.556 21.1564C188.805 21.2631 189.074 21.3181 189.344 21.3181L208.256 21.3181C209.075 21.3181 209.812 21.8176 210.115 22.5787L219.882 47.1047C220.608 48.9278 223.251 48.725 223.691 46.8125L228.635 25.2932C229.007 23.6726 231.079 23.187 232.133 24.4733L250.222 46.5562C250.417 46.7936 250.554 47.0724 250.624 47.3712L260.848 91.3576C261.302 93.3125 264.031 93.4557 264.688 91.559L288.999 21.3181" stroke="black" stroke-width="2" stroke-linecap="round" stroke-dasharray="4 7"/>
<path d="M1.00056 23.7322L17.2263 58.6782C17.6047 59.4933 18.4802 59.9561 19.3668 59.8098L32.1693 57.6972C32.7008 57.6095 33.2451 57.7397 33.6793 58.0585L54.2264 73.1453C54.9029 73.642 55.8175 73.6638 56.5168 73.1998L79.8605 57.713C80.0135 57.6115 80.1518 57.4894 80.2714 57.3503L108.158 24.9228C108.759 24.2238 109.76 24.026 110.582 24.4437L169.048 54.1605C169.214 54.2449 169.367 54.3522 169.504 54.4791L214.213 96.0686C215.27 97.0517 216.988 96.6265 217.464 95.264L236.74 40.1397C237.326 38.4629 239.644 38.3247 240.426 39.9199L255.088 69.8524C255.213 70.1072 255.391 70.3325 255.609 70.5134L288.999 98.1534" stroke="#CFB8FF" stroke-width="2" stroke-linecap="round"/>
</svg>
