<svg width="24" height="24" viewBox="0 0 24 24" fill="none" xmlns="http://www.w3.org/2000/svg">
<path d="M10.6764 21.9963C11.0927 23.3346 12.9051 23.3346 13.3214 21.9963L14.9648 16.7128C15.151 16.1143 15.6849 15.709 16.2873 15.709L21.6055 15.709C22.9526 15.709 23.5127 13.9084 22.4229 13.0813L18.1204 9.81587C17.633 9.44598 17.4291 8.79032 17.6152 8.19182L19.2586 2.9083C19.6749 1.57 18.2086 0.45713 17.1188 1.28424L12.8163 4.54964C12.3289 4.91953 11.6689 4.91953 11.1815 4.54964L6.87902 1.28424C5.78921 0.457132 4.32288 1.57 4.73915 2.9083L6.38257 8.19182C6.56873 8.79032 6.36479 9.44598 5.87741 9.81587L1.57489 13.0813C0.485083 13.9084 1.04517 15.709 2.39225 15.709L7.71046 15.709C8.31289 15.709 8.84681 16.1143 9.03297 16.7128L10.6764 21.9963Z" fill="black" stroke="white" stroke-width="2" stroke-linejoin="round"/>
</svg>
